# xmcd
#
# Track frame offsets: 
#        150
#        16705
#        31042
#        43870
#        56600
#        66992
#        84920
#        97267
#        111965
#        127580
#        140510
#        162235
#        174220
#
# Disc length: 2548 seconds
#
# Revision: 7
# Processed by: cddbd v1.5.2PL0 Copyright (c) Steve Scherf et al.
# Submitted via: ExactAudioCopy v1.0b4
#
DISCID=9f09f20d
DTITLE=Johnny Dyer - Jukin'
DYEAR=1995
DGENRE=Blues
TTITLE0=Feel Like Cryin' Again
TTITLE1=Oh Baby
TTITLE2=Aw Baby
TTITLE3=Let's Have A Natural Ball
TTITLE4=Johnny's Boogie
TTITLE5=Overdose Of Love
TTITLE6=I'm Your Hoochie Koochie Man
TTITLE7=Walkin' Through The Park
TTITLE8=Slippin' And Slidin'
TTITLE9=Baby What You Want Me To Do
TTITLE10=Everybody Talking
TTITLE11=Okie Dokie Stomp
TTITLE12=Two Hound Dogs
EXTD=
EXTT0=
EXTT1=
EXTT2=
EXTT3=
EXTT4=
EXTT5=
EXTT6=
EXTT7=
EXTT8=
EXTT9=
EXTT10=
EXTT11=
EXTT12=
PLAYORDER=
